<svg xmlns="http://www.w3.org/2000/svg" version="1.1" xmlns:xlink="http://www.w3.org/1999/xlink" width="816.8" height="1000.1"><svg version="1.1" id="SvgjsSvg1005" xmlns="http://www.w3.org/2000/svg" xmlns:xlink="http://www.w3.org/1999/xlink" x="0px" y="0px" viewBox="0 0 816.8 1000.1" style="enable-background:new 0 0 816.8 1000.1;" xml:space="preserve">
<style type="text/css">
	.st0{fill:#32C8FF;}
</style>
<path class="st0" d="M212,401.3h389.6c-1.7-84.4-23.5-149.9-63.3-190.6c-28.9-29.4-66.4-44.1-110.9-44.1
	c-119.4,0-198.7,87.4-215.1,234.6H212z M470.9,1000C145,1000,0,851.4,0,518.8S150.4,0,447.5,0C692.5,0,817,161.9,817,481.2v79.9
	H207.6c9.9,215.5,119.8,258.2,304.2,258.2c61.2,0,181.4-13,233.4-24.9l17-4.1L797.6,960l-14.3,4.8c-52.7,18.4-201.4,34.8-312.4,34.8
	V1000z"></path>
</svg><style>@media (prefers-color-scheme: light) { :root { filter: none; } }
@media (prefers-color-scheme: dark) { :root { filter: none; } }
</style></svg>