<svg width="321" height="67" viewBox="0 0 321 67" fill="none" xmlns="http://www.w3.org/2000/svg">
<g clip-path="url(#clip0_2006_14)">
<path d="M23.5659 66.6581C7.25366 66.6581 0 59.2212 0 42.5695C0 25.9178 7.5261 16.6004 22.391 16.6004C34.6507 16.6004 40.8827 24.704 40.8827 40.689V44.6895H10.3867C10.8805 55.4772 16.3803 57.6142 25.6092 57.6142C28.6741 57.6142 34.6848 56.9645 37.2899 56.3662L38.1413 56.161L39.9122 64.6578L39.197 64.8972C36.5578 65.8204 29.1168 66.641 23.5659 66.641V66.6581ZM10.6081 36.6884H30.1044C30.0193 32.4657 28.9295 29.1832 26.9373 27.1488C25.49 25.6785 23.617 24.9434 21.3864 24.9434C15.4098 24.9434 11.4424 29.32 10.6251 36.6884H10.6081Z" fill="#32C8FF"/>
<path d="M76.2147 65.8888H63.3931L47.3022 17.7117H58.4381L67.8713 48.4506L69.8976 55.4259L72.1792 48.3652L82.634 17.7288H93.5316L76.2147 65.923V65.8888Z" fill="#32C8FF"/>
<path d="M120.792 66.9145C106.983 66.9145 98.7417 57.7168 98.7417 42.3131C98.7417 26.9094 107.698 16.5149 121.558 16.5149C136.253 16.5149 144.034 25.2511 144.034 41.8002C144.034 57.2894 135.129 66.9145 120.792 66.9145ZM121.303 25.1998C111.291 25.1998 109.179 34.2779 109.179 41.8857C109.179 52.6734 113.317 58.1442 121.473 58.1442C129.629 58.1442 133.341 52.7931 133.341 41.8002C133.341 30.8074 129.289 25.1998 121.303 25.1998Z" fill="#32C8FF"/>
<path d="M166.817 65.8887H156.464V0H166.817V65.8887Z" fill="#32C8FF"/>
<path d="M203 66.6581C186.688 66.6581 179.435 59.2212 179.435 42.5695C179.435 25.9178 186.961 16.6004 201.826 16.6004C214.085 16.6004 220.317 24.704 220.317 40.689V44.6895H189.821C190.315 55.4772 195.815 57.6142 205.044 57.6142C208.109 57.6142 214.119 56.9645 216.725 56.3662L217.576 56.161L219.347 64.6578L218.632 64.8972C215.992 65.8204 208.534 66.641 203 66.641V66.6581ZM190.026 36.6884H209.522C209.437 32.4657 208.347 29.1832 206.355 27.1488C204.908 25.6785 203.035 24.9434 200.804 24.9434C194.827 24.9434 190.86 29.32 190.043 36.6884H190.026Z" fill="#32C8FF"/>
<path d="M247.919 67C232.492 67 232.492 54.7078 232.492 48.0916V17.7117H242.759V46.8265C242.759 54.2121 243.9 57.7168 250.387 57.7168C254.389 57.7168 260.808 54.1095 263.277 52.7076V17.7117H273.46V65.9059H263.277V61.3754C259.838 63.7004 254.508 67 247.936 67H247.919Z" fill="#32C8FF"/>
<path d="M302.253 66.7436C295.817 66.7436 289.448 65.6323 286.979 64.8288L286.281 64.6065L287.626 55.8362L288.512 56.0242C292.122 56.8107 297.587 57.7168 301.044 57.7168C307.242 57.7168 310.784 55.8533 310.784 52.605C310.784 49.3567 307.48 47.989 302.1 46.1084C295.578 43.8347 287.456 40.9967 287.456 30.9783C287.456 22.2934 294.386 16.6688 305.096 16.6688C310.988 16.6688 315.841 17.9339 317.782 18.6861L318.48 18.9597L316.607 27.2342L315.79 27.0462C315.364 26.9607 314.921 26.841 314.462 26.7385C312.01 26.1572 308.979 25.4562 304.705 25.4562C300.431 25.4562 297.843 27.0804 297.843 30.0551C297.843 33.7308 302.032 35.372 306.901 37.2697C313.184 39.7316 321 42.7747 321 51.8528C321 62.8456 311.311 66.7607 302.253 66.7607V66.7436Z" fill="#32C8FF"/>
</g>
<defs>
<clipPath id="clip0_2006_14">
<rect width="321" height="67" fill="white"/>
</clipPath>
</defs>
</svg>
